<svg id="Layer_1" data-name="Layer 1" xmlns="http://www.w3.org/2000/svg" xmlns:xlink="http://www.w3.org/1999/xlink" viewBox="0 0 1654.92 659.01"><defs><style>.cls-1{fill:none;}.cls-2{fill:#ab131c;}.cls-3,.cls-9{fill:#414141;}.cls-4,.cls-7{fill:#fff;}.cls-5{clip-path:url(#clip-path);}.cls-6{clip-path:url(#clip-path-2);}.cls-7,.cls-9{fill-rule:evenodd;}.cls-8{clip-path:url(#clip-path-4);}</style><clipPath id="clip-path"><rect class="cls-1" x="357.51" y="44.01" width="329.33" height="324.62"/></clipPath><clipPath id="clip-path-2"><rect class="cls-1" x="276.11" y="35.24" width="439.3" height="323.74" transform="translate(-24.25 77.86) rotate(-8.77)"/></clipPath><clipPath id="clip-path-4"><rect class="cls-1" x="294" y="198.09" width="242.29" height="175.25"/></clipPath></defs><rect class="cls-2" width="1654.92" height="659.01"/><path class="cls-3" d="M515.13,603.38A31.45,31.45,0,0,1,502,600.84a19.71,19.71,0,0,1-8.56-7.27,20.45,20.45,0,0,1-3-11.23,21,21,0,0,1,2.86-11.15,19.07,19.07,0,0,1,8.06-7.31,27.68,27.68,0,0,1,12.39-2.58,26.51,26.51,0,0,1,9.86,1.75,19.66,19.66,0,0,1,7.37,5,16.45,16.45,0,0,1,4,7.56l-9.43,2.27a10.27,10.27,0,0,0-4.09-6.13,12.68,12.68,0,0,0-7.58-2.25,14.73,14.73,0,0,0-7,1.59,11.12,11.12,0,0,0-4.56,4.48,13.72,13.72,0,0,0-1.61,6.81,12.73,12.73,0,0,0,1.78,6.83,11.53,11.53,0,0,0,5.06,4.48,17.76,17.76,0,0,0,7.77,1.59,14.88,14.88,0,0,0,9-2.67,11.4,11.4,0,0,0,4.62-7.17l9.61,1.61a17.81,17.81,0,0,1-4,8.68,20.59,20.59,0,0,1-8.14,5.69A29.89,29.89,0,0,1,515.13,603.38Z"/><path class="cls-3" d="M584.26,602.11l17.21-39.52h12.31l17,39.52H620l-3.16-7.77H598.14L595,602.11Zm16-14.5h14.5L607.64,570h-.13Z"/><path class="cls-3" d="M678.36,602.11V562.59H711.8v8.1H688.7V580h19.77v7.06H688.7v15Z"/><path class="cls-3" d="M760.09,602.11V562.59h34.15V570H770.09v8.54H792v6.6H770.09v9.5H794.8v7.44Z"/><path class="cls-3" d="M855.28,602.11V570.69H841.05v-8.1H879.8v8.1H865.59v31.42Z"/><path class="cls-3" d="M927.78,602.11V562.59h34.14V570H937.78v8.54h21.94v6.6H937.78v9.5h24.71v7.44Z"/><path class="cls-3" d="M1047,603.17a8.31,8.31,0,0,1-5.5-1.77,11.65,11.65,0,0,1-3.21-4.35l-2.23-5.44a7.08,7.08,0,0,0-2.2-3,5.28,5.28,0,0,0-3.34-1.12h-9.1v14.6h-10.34V562.59h25.71q7.23,0,11.36,3.25a10.67,10.67,0,0,1,4.14,8.9,9.93,9.93,0,0,1-2.79,7.14,13.87,13.87,0,0,1-7.71,3.86v0a5.68,5.68,0,0,1,2.32,1.68,10.35,10.35,0,0,1,1.52,2.61l2,4.71a5.26,5.26,0,0,0,1,1.5,2.29,2.29,0,0,0,1.66.6,3.19,3.19,0,0,0,1.59-.44,4.14,4.14,0,0,0,1.37-1.16l2.17,4.6a10.93,10.93,0,0,1-3.73,2.38A12.56,12.56,0,0,1,1047,603.17ZM1021.4,580.9h13.21a8.48,8.48,0,0,0,5.35-1.52,4.9,4.9,0,0,0,2-4.08,5,5,0,0,0-2-4.17,8.37,8.37,0,0,0-5.35-1.56H1021.4Z"/><path class="cls-3" d="M1103,602.11V562.59h10.27v39.52Z"/><path class="cls-3" d="M1160.83,602.11,1178,562.59h12.31l17,39.52h-10.77l-3.17-7.77H1174.7l-3.16,7.77Zm16-14.5h14.5L1184.2,570h-.12Z"/><path class="cls-4" d="M496.39,371.66a20.5,20.5,0,0,0-12.85,5,34.53,34.53,0,0,0-6.92,8,57.05,57.05,0,0,0-6.06,13.4,118.26,118.26,0,0,0-4.32,20,202.63,202.63,0,0,0-1.64,27.75,184.18,184.18,0,0,0,1.64,26.43,102.76,102.76,0,0,0,4.42,19A51.86,51.86,0,0,0,477,504.14a32.31,32.31,0,0,0,7.55,7.75,25.18,25.18,0,0,0,7.89,3.81,29.51,29.51,0,0,0,7.44,1,29.87,29.87,0,0,0,7.42-1,36.62,36.62,0,0,0,7.39-2.72,41.61,41.61,0,0,0,7-4.32,40.37,40.37,0,0,0,6.17-5.83l4.23,4.23a65.86,65.86,0,0,1-6.78,7.1,49.51,49.51,0,0,1-9.16,6.59,55.07,55.07,0,0,1-11.73,4.83,51.28,51.28,0,0,1-14.38,1.9,55.84,55.84,0,0,1-22.91-4.71,48.6,48.6,0,0,1-18.44-14.63q-7.86-9.92-12.33-25.44t-4.46-37.16q0-20.33,4.71-35.67t12.79-25.62a52.62,52.62,0,0,1,42.25-20.75,65.77,65.77,0,0,1,14.89,1.56,39.26,39.26,0,0,1,11.63,4.52,22,22,0,0,1,7.56,7.33,18.61,18.61,0,0,1,2.69,9.92,17.94,17.94,0,0,1-.86,5.31,15.89,15.89,0,0,1-2.58,5.09,14,14,0,0,1-4.27,3.77,11.73,11.73,0,0,1-5.92,1.45,7.26,7.26,0,0,1-4.66-1.31,7.9,7.9,0,0,1-2.46-3.5,18.68,18.68,0,0,1-1-4.94c-.16-1.84-.27-3.74-.34-5.68s-.19-3.84-.41-5.69a16.65,16.65,0,0,0-1.34-4.94,8.39,8.39,0,0,0-2.85-3.48A9.06,9.06,0,0,0,496.39,371.66Z"/><path class="cls-4" d="M720.43,464.51H685a150.62,150.62,0,0,1-8.5,21.55,65.56,65.56,0,0,1-10.13,15.16,34.83,34.83,0,0,1-27,11.84,46.5,46.5,0,0,1-8.69-.8,33.76,33.76,0,0,1-7.37-2.2,16.9,16.9,0,0,1-5.15-3.36,5.81,5.81,0,0,1-1.94-4.17,11.77,11.77,0,0,1,.53-3.43,12.31,12.31,0,0,1,1.45-3.21,7.59,7.59,0,0,1,2.32-2.33,5.39,5.39,0,0,1,3.06-.9c1,0,1.87.69,2.62,2.06a47,47,0,0,0,2.88,4.56,20,20,0,0,0,4.46,4.57,12.28,12.28,0,0,0,7.54,2.06,19.6,19.6,0,0,0,9.29-2.35,28.35,28.35,0,0,0,8.52-7.38,64.91,64.91,0,0,0,7.86-12.83,152.61,152.61,0,0,0,7.35-18.84H651.85v-8.27H676.5q3.11-10.53,6.06-21.25t5.58-20.6q2.64-9.9,4.71-18.5t3.5-15q-1.89-5.26-5.14-7a17.93,17.93,0,0,0-8.69-1.79,37.86,37.86,0,0,0-10.5,1.56,36.59,36.59,0,0,0-9.84,4.41,25.67,25.67,0,0,0-7.29,7.05,16.24,16.24,0,0,0-2.85,9.35,12,12,0,0,0,.79,4.81,7.16,7.16,0,0,0,1.9,2.67,5.38,5.38,0,0,0,2.1,1.15,8.1,8.1,0,0,0,1.6.22,8.25,8.25,0,0,0,3.8-.79,18.85,18.85,0,0,0,2.73-1.71q1.18-.88,2.31-1.68a4.3,4.3,0,0,1,2.54-.82,6.16,6.16,0,0,1,2.31.53,6.86,6.86,0,0,1,2.36,1.64,9.34,9.34,0,0,1,1.83,3,11.78,11.78,0,0,1,.75,4.46,13.65,13.65,0,0,1-1.46,6.5,14.35,14.35,0,0,1-3.77,4.56,15.29,15.29,0,0,1-5.27,2.73,20.75,20.75,0,0,1-5.88.88,19.38,19.38,0,0,1-8.12-1.65,18.39,18.39,0,0,1-6.17-4.46,19.17,19.17,0,0,1-3.85-6.58,23.72,23.72,0,0,1-1.31-7.9,30.75,30.75,0,0,1,2.06-11.44A33.05,33.05,0,0,1,649,381a40.62,40.62,0,0,1,8.66-7.52,56.45,56.45,0,0,1,10.78-5.45,66.88,66.88,0,0,1,12.08-3.34,71.35,71.35,0,0,1,12.71-1.14A69.14,69.14,0,0,1,708.52,365a31.15,31.15,0,0,1,10.5,4.34,22.37,22.37,0,0,1,6.81,7.25,43.43,43.43,0,0,1,4.29,10.1l20.23,69.52h20.42v8.27H752.6l7.33,24.65c.25.95.5,1.83.75,2.65a12.17,12.17,0,0,0,.9,2.12,4.83,4.83,0,0,0,1.31,1.46,3.53,3.53,0,0,0,2,.56,13.23,13.23,0,0,0,4.88-.89,33.85,33.85,0,0,0,4-1.84l1.6,3.48q-1.68,1.21-4.29,2.77a48,48,0,0,1-5.92,3,43.33,43.33,0,0,1-7.39,2.35,38,38,0,0,1-8.65.94,28.09,28.09,0,0,1-10.31-1.58,17.06,17.06,0,0,1-6.1-4,15,15,0,0,1-3.21-5q-1-2.64-1.54-4.62Zm-18.25-63.58q-3.85,15.7-7.47,29.54t-7.21,25.77h30.66Z"/><path class="cls-4" d="M982.28,471.87q3.39-8.76,7.14-19.52t6.92-21.84q3.17-11.06,5.23-21.5a97.47,97.47,0,0,0,2.06-18.62,52.91,52.91,0,0,0-.85-10.33,42.7,42.7,0,0,0-1.92-6.92c-.73-1.86-1.37-3.38-1.94-4.56a7.87,7.87,0,0,1-.83-3.32,5.16,5.16,0,0,1,1.08-3.31,9.33,9.33,0,0,1,2.67-2.31,11.72,11.72,0,0,1,3.48-1.38,17.18,17.18,0,0,1,3.58-.41,15.9,15.9,0,0,1,6.35,1.12,6.62,6.62,0,0,1,3.63,3.86,19.38,19.38,0,0,1,.75,3q.29,1.54.42,3c.09,1,.14,1.88.14,2.72v2a61.92,61.92,0,0,1-1.31,10.81q-1.32,6.87-3.54,15.54t-5.13,18.52q-2.9,9.87-6,19.9T997.88,458q-3.2,9.58-6,17.73t-5,14.25q-2.22,6.1-3.42,9.13a10.72,10.72,0,0,1-2.12,3.47,9,9,0,0,1-2.88,2,12.61,12.61,0,0,1-3.54.93,34.08,34.08,0,0,1-4,.23,20.54,20.54,0,0,1-6.12-.75,12.36,12.36,0,0,1-3.8-1.87,7.34,7.34,0,0,1-2.12-2.44,22.36,22.36,0,0,1-1-2.35l-35.65-112a42.76,42.76,0,0,0-2.12-5.42,11.78,11.78,0,0,0-2.65-3.6,9.61,9.61,0,0,0-3.71-2.09,17.89,17.89,0,0,0-11.48.61,23.56,23.56,0,0,0-6.62,3.77,21.83,21.83,0,0,0-5.31,6.21,16.68,16.68,0,0,0-2.17,8.6,12,12,0,0,0,.79,4.81,7.7,7.7,0,0,0,1.83,2.67,5,5,0,0,0,2.13,1.15,8.59,8.59,0,0,0,1.56.22,8.23,8.23,0,0,0,3.86-.79,23.48,23.48,0,0,0,2.72-1.71c.82-.59,1.59-1.15,2.3-1.68a4.05,4.05,0,0,1,2.5-.82,6.28,6.28,0,0,1,2.39.53,6.86,6.86,0,0,1,2.36,1.64,9.34,9.34,0,0,1,1.83,3,11.78,11.78,0,0,1,.75,4.46,13.65,13.65,0,0,1-1.46,6.5A14.35,14.35,0,0,1,907.9,419a15.28,15.28,0,0,1-5.25,2.73,20.74,20.74,0,0,1-5.87.88,19.5,19.5,0,0,1-8.07-1.59,17.17,17.17,0,0,1-5.91-4.33,18.93,18.93,0,0,1-3.67-6.36,23.16,23.16,0,0,1-1.27-7.75,35.7,35.7,0,0,1,13.73-29.27,42.5,42.5,0,0,1,14.1-7.29A56.19,56.19,0,0,1,922,363.58q9.39,0,15.42,2.87a28,28,0,0,1,9.73,7.4A36.5,36.5,0,0,1,953,384q2.16,5.6,3.85,11Z"/><path class="cls-4" d="M1193.06,505.72q-7.92,0-11.69-3.29t-3.75-10.54V372.43q-3,.27-7.48,1.08a79.83,79.83,0,0,0-9.35,2.3,91.45,91.45,0,0,0-9.79,3.62,46.52,46.52,0,0,0-8.75,4.9,26.63,26.63,0,0,0-6.32,6.25,13.16,13.16,0,0,0-2.43,7.7,12.1,12.1,0,0,0,.79,4.82,7.74,7.74,0,0,0,1.83,2.66,5,5,0,0,0,2.13,1.15,8,8,0,0,0,1.56.23,8.18,8.18,0,0,0,3.85-.79,23.64,23.64,0,0,0,2.73-1.71l2.32-1.69a4.09,4.09,0,0,1,2.47-.79,6.5,6.5,0,0,1,2.4.52,6.6,6.6,0,0,1,2.35,1.65,9.42,9.42,0,0,1,1.84,2.95,11.82,11.82,0,0,1,.75,4.46,13.59,13.59,0,0,1-1.46,6.5,14.28,14.28,0,0,1-3.77,4.57,15.44,15.44,0,0,1-5.25,2.72,20.15,20.15,0,0,1-5.88.9,20.55,20.55,0,0,1-8.14-1.54,17.9,17.9,0,0,1-10-10.69,23,23,0,0,1-1.32-7.81,30.77,30.77,0,0,1,6.07-19.06,46.77,46.77,0,0,1,16.6-13.36,90.38,90.38,0,0,1,24.56-7.85,168.65,168.65,0,0,1,30-2.54q7.63,0,14.88.14t13.21.44q6,.27,10.29.65a51.66,51.66,0,0,1,6.31.83,8.06,8.06,0,0,1,3,1.37,6.15,6.15,0,0,1,1.69,2,8.28,8.28,0,0,1,.75,2.4,18.44,18.44,0,0,1,.19,2.58,12.15,12.15,0,0,1-.29,2.42,11.63,11.63,0,0,1-.84,2.58,7.21,7.21,0,0,1-1.41,2.07,2.78,2.78,0,0,1-2.07.85,2.47,2.47,0,0,1-1.56-.67,25.86,25.86,0,0,0-2.21-1.6,35.5,35.5,0,0,0-3.81-2.15,33.39,33.39,0,0,0-6.31-2.27,88.44,88.44,0,0,0-9.59-1.87,124.06,124.06,0,0,0-13.77-1.13V491.89q0,7.25-3.77,10.54T1193.06,505.72Z"/><g class="cls-5"><g class="cls-6"><g class="cls-6"><path class="cls-7" d="M358.38,249.64s48-3.51,111-89.46,124-99.07,158.79-55.7-2.15,91.83-2.15,91.83a367.44,367.44,0,0,0-3.58-42.72c-3.18-20.61-13.62-33.18-13.62-33.18s7.33,30.77,5.6,46.65-15.37,31.45-15.37,31.45l-9.67,1.67A92,92,0,0,0,582,165.69c-7.69-17.47-23.73-26.3-23.73-26.3s15.53,20.29,17.67,34.15,2.33,31.21,2.33,31.21-35.8,2.33-79.09,27.44-71.5,60.68-71.5,60.68,76.72-49.78,128.57-63.09S634.66,228,634.66,228l18,38.37s-53,6-105.16,28.63S442.8,368.2,442.8,368.2s91-51.28,144.65-67S686.67,287,686.67,287l-36.93-71.61s56-96.59-1-146.67S506.3,46.34,455.63,138.55,358.38,249.64,358.38,249.64Z"/></g></g></g><g class="cls-8"><g class="cls-6"><g class="cls-6"><path class="cls-9" d="M385.52,199s-85.39,28.07-70,82.07,88,16.58,88,16.58l18,40.87s29.39-23.36,57.1-36.85,57.44-13.82,57.44-13.82-60.74,20-83.33,43.7-38.31,41.37-38.31,41.37L392.33,326s-71.48,26.28-92.15-31.89S322.71,203.37,385.52,199Z"/></g></g></g></svg>