<svg xmlns="http://www.w3.org/2000/svg" xmlns:xlink="http://www.w3.org/1999/xlink" width="1080" zoomAndPan="magnify" viewBox="0 0 810 809.999993" height="1080" preserveAspectRatio="xMidYMid meet" version="1.2"><defs><clipPath id="0cceb32143"><path d="M 88 125 L 368 125 L 368 401 L 88 401 Z M 88 125 "/></clipPath><clipPath id="78fbaa0f52"><path d="M 0 147.609375 L 369.136719 90.683594 L 411.085938 362.71875 L 41.949219 419.644531 Z M 0 147.609375 "/></clipPath><clipPath id="dd706fd842"><path d="M 0 147.609375 L 369.136719 90.683594 L 411.085938 362.71875 L 41.949219 419.644531 Z M 0 147.609375 "/></clipPath><clipPath id="c9d187790c"><path d="M 34 256 L 240 256 L 240 405 L 34 405 Z M 34 256 "/></clipPath><clipPath id="e8fb10ad75"><path d="M 0 147.609375 L 369.136719 90.683594 L 411.085938 362.71875 L 41.949219 419.644531 Z M 0 147.609375 "/></clipPath><clipPath id="1e05c5703c"><path d="M 0 147.609375 L 369.136719 90.683594 L 411.085938 362.71875 L 41.949219 419.644531 Z M 0 147.609375 "/></clipPath></defs><g id="46c7b3824b"><rect x="0" width="810" y="0" height="809.999993" style="fill:#ffffff;fill-opacity:1;stroke:none;"/><rect x="0" width="810" y="0" height="809.999993" style="fill:#ab131c;fill-opacity:1;stroke:none;"/><g clip-rule="nonzero" clip-path="url(#0cceb32143)"><g clip-rule="nonzero" clip-path="url(#78fbaa0f52)"><g clip-rule="nonzero" clip-path="url(#dd706fd842)"><path style=" stroke:none;fill-rule:evenodd;fill:#ffffff;fill-opacity:1;" d="M 88.734375 299.828125 C 88.734375 299.828125 129.582031 296.847656 183.136719 223.765625 C 236.6875 150.683594 288.53125 139.539062 318.140625 176.414062 C 347.753906 213.285156 316.3125 254.484375 316.3125 254.484375 C 316.3125 254.484375 315.976562 235.691406 313.273438 218.167969 C 310.570312 200.644531 301.6875 189.953125 301.6875 189.953125 C 301.6875 189.953125 307.921875 216.121094 306.449219 229.621094 C 304.972656 243.125 293.382812 256.359375 293.382812 256.359375 L 285.160156 257.78125 C 285.160156 257.78125 285.371094 243.308594 278.828125 228.453125 C 272.289062 213.601562 258.648438 206.089844 258.648438 206.089844 C 258.648438 206.089844 271.859375 223.347656 273.675781 235.128906 C 275.496094 246.910156 275.660156 261.660156 275.660156 261.660156 C 275.660156 261.660156 245.214844 263.644531 208.410156 284.996094 C 171.601562 306.351562 147.621094 336.582031 147.621094 336.582031 C 147.621094 336.582031 212.851562 294.261719 256.9375 282.941406 C 301.019531 271.621094 323.632812 281.398438 323.632812 281.398438 L 338.914062 314.015625 C 338.914062 314.015625 293.882812 319.15625 249.507812 338.363281 C 205.132812 357.566406 160.515625 400.628906 160.515625 400.628906 C 160.515625 400.628906 237.914062 357.035156 283.492188 343.675781 C 329.070312 330.316406 367.855469 331.566406 367.855469 331.566406 L 336.457031 270.683594 C 336.457031 270.683594 384.101562 188.558594 335.625 145.984375 C 287.148438 103.410156 214.5 126.976562 171.417969 205.378906 C 128.332031 283.78125 88.734375 299.828125 88.734375 299.828125 Z M 88.734375 299.828125 "/></g></g></g><g clip-rule="nonzero" clip-path="url(#c9d187790c)"><g clip-rule="nonzero" clip-path="url(#e8fb10ad75)"><g clip-rule="nonzero" clip-path="url(#1e05c5703c)"><path style=" stroke:none;fill-rule:evenodd;fill:#ffffff;fill-opacity:1;" d="M 111.808594 256.777344 C 111.808594 256.777344 39.207031 280.636719 52.320312 326.554688 C 65.429688 372.472656 127.152344 340.644531 127.152344 340.644531 L 142.457031 375.394531 C 142.457031 375.394531 167.441406 355.535156 191 344.066406 C 214.554688 332.59375 239.839844 332.3125 239.839844 332.3125 C 239.839844 332.3125 188.191406 349.324219 168.988281 369.46875 C 149.78125 389.617188 136.417969 404.640625 136.417969 404.640625 L 117.601562 364.730469 C 117.601562 364.730469 56.824219 387.070312 39.25 337.617188 C 21.675781 288.164062 58.410156 260.492188 111.808594 256.777344 Z M 111.808594 256.777344 "/></g></g></g><g style="fill:#ffffff;fill-opacity:1;"><g transform="translate(123.174985, 514.044823)"><path style="stroke:none" d="M 54.1875 -99.421875 C 52.914062 -99.421875 51.429688 -99.160156 49.734375 -98.640625 C 48.046875 -98.117188 46.316406 -97.140625 44.546875 -95.703125 C 42.785156 -94.273438 41.054688 -92.265625 39.359375 -89.671875 C 37.671875 -87.085938 36.15625 -83.738281 34.8125 -79.625 C 33.476562 -75.507812 32.398438 -70.507812 31.578125 -64.625 C 30.753906 -58.75 30.34375 -51.8125 30.34375 -43.8125 C 30.34375 -36.195312 30.753906 -29.585938 31.578125 -23.984375 C 32.398438 -18.390625 33.503906 -13.628906 34.890625 -9.703125 C 36.273438 -5.773438 37.859375 -2.5625 39.640625 -0.0625 C 41.429688 2.425781 43.316406 4.363281 45.296875 5.75 C 47.273438 7.132812 49.25 8.085938 51.21875 8.609375 C 53.195312 9.128906 55.054688 9.390625 56.796875 9.390625 C 58.628906 9.390625 60.484375 9.148438 62.359375 8.671875 C 64.242188 8.203125 66.09375 7.519531 67.90625 6.625 C 69.71875 5.738281 71.457031 4.660156 73.125 3.390625 C 74.800781 2.117188 76.34375 0.660156 77.75 -0.984375 L 80.921875 2.1875 C 79.515625 3.925781 77.820312 5.703125 75.84375 7.515625 C 73.875 9.328125 71.582031 10.972656 68.96875 12.453125 C 66.351562 13.929688 63.421875 15.140625 60.171875 16.078125 C 56.929688 17.023438 53.335938 17.5 49.390625 17.5 C 43.222656 17.5 37.492188 16.320312 32.203125 13.96875 C 26.910156 11.613281 22.300781 7.957031 18.375 3 C 14.445312 -1.957031 11.363281 -8.316406 9.125 -16.078125 C 6.894531 -23.847656 5.78125 -33.140625 5.78125 -43.953125 C 5.78125 -54.117188 6.957031 -63.035156 9.3125 -70.703125 C 11.664062 -78.367188 14.863281 -84.773438 18.90625 -89.921875 C 22.957031 -95.078125 27.707031 -98.957031 33.15625 -101.5625 C 38.613281 -104.175781 44.425781 -105.484375 50.59375 -105.484375 C 54.6875 -105.484375 58.410156 -105.09375 61.765625 -104.3125 C 65.128906 -103.539062 68.035156 -102.410156 70.484375 -100.921875 C 72.929688 -99.441406 74.820312 -97.609375 76.15625 -95.421875 C 77.5 -93.234375 78.171875 -90.753906 78.171875 -87.984375 C 78.171875 -86.710938 77.957031 -85.382812 77.53125 -84 C 77.113281 -82.613281 76.46875 -81.34375 75.59375 -80.1875 C 74.726562 -79.03125 73.660156 -78.085938 72.390625 -77.359375 C 71.117188 -76.628906 69.640625 -76.265625 67.953125 -76.265625 C 66.441406 -76.265625 65.273438 -76.59375 64.453125 -77.25 C 63.628906 -77.914062 63.015625 -78.789062 62.609375 -79.875 C 62.210938 -80.957031 61.957031 -82.191406 61.84375 -83.578125 C 61.726562 -84.960938 61.644531 -86.382812 61.59375 -87.84375 C 61.550781 -89.300781 61.445312 -90.722656 61.28125 -92.109375 C 61.113281 -93.492188 60.78125 -94.726562 60.28125 -95.8125 C 59.789062 -96.894531 59.078125 -97.765625 58.140625 -98.421875 C 57.203125 -99.085938 55.882812 -99.421875 54.1875 -99.421875 Z M 54.1875 -99.421875 "/></g></g><g style="fill:#ffffff;fill-opacity:1;"><g transform="translate(278.78711, 514.044823)"><path style="stroke:none" d="M 66.609375 -29.78125 L 40 -29.78125 C 38.03125 -23.570312 35.90625 -18.1875 33.625 -13.625 C 31.34375 -9.0625 28.8125 -5.269531 26.03125 -2.25 C 23.257812 0.757812 20.210938 2.988281 16.890625 4.4375 C 13.578125 5.894531 9.875 6.625 5.78125 6.625 C 3.53125 6.625 1.359375 6.425781 -0.734375 6.03125 C -2.828125 5.632812 -4.671875 5.082031 -6.265625 4.375 C -7.867188 3.664062 -9.15625 2.828125 -10.125 1.859375 C -11.09375 0.898438 -11.578125 -0.140625 -11.578125 -1.265625 C -11.578125 -2.117188 -11.445312 -2.976562 -11.1875 -3.84375 C -10.925781 -4.71875 -10.5625 -5.519531 -10.09375 -6.25 C -9.625 -6.976562 -9.046875 -7.5625 -8.359375 -8 C -7.679688 -8.445312 -6.914062 -8.671875 -6.0625 -8.671875 C -5.3125 -8.671875 -4.65625 -8.15625 -4.09375 -7.125 C -3.53125 -6.09375 -2.8125 -4.953125 -1.9375 -3.703125 C -1.070312 -2.453125 0.0390625 -1.3125 1.40625 -0.28125 C 2.769531 0.75 4.65625 1.265625 7.0625 1.265625 C 9.5 1.265625 11.820312 0.675781 14.03125 -0.5 C 16.25 -1.675781 18.378906 -3.519531 20.421875 -6.03125 C 22.472656 -8.550781 24.4375 -11.757812 26.3125 -15.65625 C 28.195312 -19.5625 30.035156 -24.269531 31.828125 -29.78125 L 15.171875 -29.78125 L 15.171875 -35.984375 L 33.65625 -35.984375 C 35.207031 -41.253906 36.722656 -46.566406 38.203125 -51.921875 C 39.679688 -57.285156 41.078125 -62.4375 42.390625 -67.375 C 43.710938 -72.320312 44.890625 -76.945312 45.921875 -81.25 C 46.960938 -85.550781 47.835938 -89.300781 48.546875 -92.5 C 47.597656 -95.132812 46.3125 -96.894531 44.6875 -97.78125 C 43.070312 -98.675781 40.898438 -99.125 38.171875 -99.125 C 35.628906 -99.125 33.003906 -98.734375 30.296875 -97.953125 C 27.597656 -97.179688 25.140625 -96.078125 22.921875 -94.640625 C 20.710938 -93.210938 18.890625 -91.453125 17.453125 -89.359375 C 16.023438 -87.265625 15.3125 -84.925781 15.3125 -82.34375 C 15.3125 -80.832031 15.507812 -79.628906 15.90625 -78.734375 C 16.3125 -77.847656 16.785156 -77.179688 17.328125 -76.734375 C 17.867188 -76.285156 18.394531 -76 18.90625 -75.875 C 19.425781 -75.757812 19.828125 -75.703125 20.109375 -75.703125 C 21.234375 -75.703125 22.179688 -75.898438 22.953125 -76.296875 C 23.734375 -76.703125 24.414062 -77.128906 25 -77.578125 C 25.59375 -78.023438 26.171875 -78.445312 26.734375 -78.84375 C 27.304688 -79.25 27.941406 -79.453125 28.640625 -79.453125 C 29.160156 -79.453125 29.738281 -79.320312 30.375 -79.0625 C 31.007812 -78.800781 31.597656 -78.390625 32.140625 -77.828125 C 32.679688 -77.265625 33.140625 -76.519531 33.515625 -75.59375 C 33.890625 -74.675781 34.078125 -73.5625 34.078125 -72.25 C 34.078125 -70.363281 33.710938 -68.738281 32.984375 -67.375 C 32.253906 -66.007812 31.3125 -64.867188 30.15625 -63.953125 C 29.007812 -63.035156 27.691406 -62.351562 26.203125 -61.90625 C 24.722656 -61.46875 23.253906 -61.25 21.796875 -61.25 C 19.546875 -61.25 17.515625 -61.660156 15.703125 -62.484375 C 13.890625 -63.304688 12.347656 -64.421875 11.078125 -65.828125 C 9.804688 -67.242188 8.84375 -68.890625 8.1875 -70.765625 C 7.53125 -72.648438 7.203125 -74.625 7.203125 -76.6875 C 7.203125 -79.800781 7.71875 -82.660156 8.75 -85.265625 C 9.78125 -87.878906 11.210938 -90.253906 13.046875 -92.390625 C 14.890625 -94.535156 17.054688 -96.414062 19.546875 -98.03125 C 22.035156 -99.65625 24.726562 -101.019531 27.625 -102.125 C 30.519531 -103.226562 33.539062 -104.0625 36.6875 -104.625 C 39.84375 -105.195312 43.019531 -105.484375 46.21875 -105.484375 C 50.726562 -105.484375 54.546875 -105.117188 57.671875 -104.390625 C 60.804688 -103.660156 63.429688 -102.578125 65.546875 -101.140625 C 67.660156 -99.703125 69.363281 -97.890625 70.65625 -95.703125 C 71.957031 -93.515625 73.03125 -90.988281 73.875 -88.125 L 89.046875 -35.984375 L 104.359375 -35.984375 L 104.359375 -29.78125 L 90.734375 -29.78125 L 96.234375 -11.296875 C 96.421875 -10.585938 96.609375 -9.925781 96.796875 -9.3125 C 96.992188 -8.695312 97.21875 -8.164062 97.46875 -7.71875 C 97.726562 -7.28125 98.054688 -6.914062 98.453125 -6.625 C 98.859375 -6.34375 99.367188 -6.203125 99.984375 -6.203125 C 101.296875 -6.203125 102.515625 -6.425781 103.640625 -6.875 C 104.773438 -7.320312 105.765625 -7.78125 106.609375 -8.25 L 107.8125 -5.640625 C 106.96875 -5.035156 105.894531 -4.34375 104.59375 -3.5625 C 103.300781 -2.789062 101.820312 -2.050781 100.15625 -1.34375 C 98.488281 -0.632812 96.640625 -0.046875 94.609375 0.421875 C 92.585938 0.890625 90.425781 1.125 88.125 1.125 C 84.925781 1.125 82.347656 0.726562 80.390625 -0.0625 C 78.441406 -0.863281 76.914062 -1.851562 75.8125 -3.03125 C 74.707031 -4.207031 73.90625 -5.453125 73.40625 -6.765625 C 72.914062 -8.085938 72.53125 -9.242188 72.25 -10.234375 Z M 52.921875 -77.46875 C 50.992188 -69.613281 49.125 -62.226562 47.3125 -55.3125 C 45.5 -48.394531 43.695312 -41.953125 41.90625 -35.984375 L 64.90625 -35.984375 Z M 52.921875 -77.46875 "/></g></g><g style="fill:#ffffff;fill-opacity:1;"><g transform="translate(463.464524, 514.044823)"><path style="stroke:none" d="M 78.3125 -24.265625 C 80.007812 -28.640625 81.796875 -33.519531 83.671875 -38.90625 C 85.554688 -44.289062 87.285156 -49.75 88.859375 -55.28125 C 90.441406 -60.8125 91.75 -66.1875 92.78125 -71.40625 C 93.8125 -76.625 94.328125 -81.28125 94.328125 -85.375 C 94.328125 -88.476562 94.113281 -91.0625 93.6875 -93.125 C 93.269531 -95.195312 92.789062 -96.925781 92.25 -98.3125 C 91.707031 -99.707031 91.222656 -100.847656 90.796875 -101.734375 C 90.378906 -102.628906 90.171875 -103.457031 90.171875 -104.21875 C 90.171875 -105.195312 90.441406 -106.023438 90.984375 -106.703125 C 91.523438 -107.390625 92.191406 -107.96875 92.984375 -108.4375 C 93.785156 -108.914062 94.65625 -109.257812 95.59375 -109.46875 C 96.539062 -109.675781 97.4375 -109.78125 98.28125 -109.78125 C 100.164062 -109.78125 101.753906 -109.5 103.046875 -108.9375 C 104.335938 -108.375 105.242188 -107.410156 105.765625 -106.046875 C 106.003906 -105.335938 106.191406 -104.59375 106.328125 -103.8125 C 106.472656 -103.039062 106.578125 -102.289062 106.640625 -101.5625 C 106.710938 -100.832031 106.75 -100.148438 106.75 -99.515625 C 106.75 -98.878906 106.75 -98.375 106.75 -98 C 106.75 -96.03125 106.421875 -93.328125 105.765625 -89.890625 C 105.109375 -86.453125 104.222656 -82.566406 103.109375 -78.234375 C 102.003906 -73.910156 100.722656 -69.28125 99.265625 -64.34375 C 97.816406 -59.40625 96.3125 -54.429688 94.75 -49.421875 C 93.195312 -44.410156 91.617188 -39.503906 90.015625 -34.703125 C 88.421875 -29.910156 86.914062 -25.476562 85.5 -21.40625 C 84.09375 -17.34375 82.835938 -13.78125 81.734375 -10.71875 C 80.628906 -7.664062 79.773438 -5.382812 79.171875 -3.875 C 78.742188 -2.800781 78.210938 -1.929688 77.578125 -1.265625 C 76.941406 -0.609375 76.222656 -0.101562 75.421875 0.25 C 74.617188 0.601562 73.734375 0.835938 72.765625 0.953125 C 71.804688 1.066406 70.8125 1.125 69.78125 1.125 C 67.894531 1.125 66.363281 0.9375 65.1875 0.5625 C 64.019531 0.1875 63.070312 -0.28125 62.34375 -0.84375 C 61.613281 -1.40625 61.082031 -2.015625 60.75 -2.671875 C 60.414062 -3.335938 60.15625 -3.925781 59.96875 -4.4375 L 33.234375 -88.40625 C 32.710938 -90.007812 32.179688 -91.363281 31.640625 -92.46875 C 31.097656 -93.570312 30.4375 -94.472656 29.65625 -95.171875 C 28.882812 -95.878906 27.957031 -96.398438 26.875 -96.734375 C 25.800781 -97.066406 24.460938 -97.234375 22.859375 -97.234375 C 21.546875 -97.234375 20.015625 -96.914062 18.265625 -96.28125 C 16.523438 -95.644531 14.867188 -94.703125 13.296875 -93.453125 C 11.722656 -92.203125 10.394531 -90.648438 9.3125 -88.796875 C 8.226562 -86.941406 7.6875 -84.789062 7.6875 -82.34375 C 7.6875 -80.832031 7.882812 -79.628906 8.28125 -78.734375 C 8.6875 -77.847656 9.144531 -77.179688 9.65625 -76.734375 C 10.175781 -76.285156 10.707031 -76 11.25 -75.875 C 11.789062 -75.757812 12.179688 -75.703125 12.421875 -75.703125 C 13.597656 -75.703125 14.5625 -75.898438 15.3125 -76.296875 C 16.0625 -76.703125 16.742188 -77.128906 17.359375 -77.578125 C 17.972656 -78.023438 18.546875 -78.445312 19.078125 -78.84375 C 19.617188 -79.25 20.242188 -79.453125 20.953125 -79.453125 C 21.515625 -79.453125 22.113281 -79.320312 22.75 -79.0625 C 23.382812 -78.800781 23.972656 -78.390625 24.515625 -77.828125 C 25.054688 -77.265625 25.515625 -76.519531 25.890625 -75.59375 C 26.265625 -74.675781 26.453125 -73.5625 26.453125 -72.25 C 26.453125 -70.363281 26.085938 -68.738281 25.359375 -67.375 C 24.628906 -66.007812 23.6875 -64.867188 22.53125 -63.953125 C 21.382812 -63.035156 20.070312 -62.351562 18.59375 -61.90625 C 17.113281 -61.46875 15.644531 -61.25 14.1875 -61.25 C 11.925781 -61.25 9.910156 -61.644531 8.140625 -62.4375 C 6.378906 -63.238281 4.898438 -64.320312 3.703125 -65.6875 C 2.503906 -67.050781 1.585938 -68.640625 0.953125 -70.453125 C 0.316406 -72.265625 0 -74.203125 0 -76.265625 C 0 -81.160156 0.9375 -85.429688 2.8125 -89.078125 C 4.695312 -92.722656 7.191406 -95.769531 10.296875 -98.21875 C 13.398438 -100.664062 16.925781 -102.488281 20.875 -103.6875 C 24.832031 -104.882812 28.90625 -105.484375 33.09375 -105.484375 C 37.789062 -105.484375 41.644531 -104.765625 44.65625 -103.328125 C 47.664062 -101.890625 50.097656 -100.039062 51.953125 -97.78125 C 53.816406 -95.53125 55.289062 -93.003906 56.375 -90.203125 C 57.457031 -87.410156 58.421875 -84.648438 59.265625 -81.921875 Z M 78.3125 -24.265625 "/></g></g><g style="fill:#ffffff;fill-opacity:1;"><g transform="translate(647.083753, 514.044823)"><path style="stroke:none" d="M 52.78125 1.125 C 48.820312 1.125 45.898438 0.300781 44.015625 -1.34375 C 42.140625 -2.988281 41.203125 -5.625 41.203125 -9.25 L 41.203125 -98.84375 C 39.703125 -98.707031 37.832031 -98.4375 35.59375 -98.03125 C 33.363281 -97.632812 31.023438 -97.0625 28.578125 -96.3125 C 26.128906 -95.5625 23.679688 -94.65625 21.234375 -93.59375 C 18.785156 -92.53125 16.597656 -91.304688 14.671875 -89.921875 C 12.742188 -88.535156 11.164062 -86.972656 9.9375 -85.234375 C 8.71875 -83.492188 8.109375 -81.566406 8.109375 -79.453125 C 8.109375 -77.941406 8.304688 -76.738281 8.703125 -75.84375 C 9.109375 -74.957031 9.566406 -74.289062 10.078125 -73.84375 C 10.597656 -73.394531 11.128906 -73.109375 11.671875 -72.984375 C 12.210938 -72.867188 12.601562 -72.8125 12.84375 -72.8125 C 14.019531 -72.8125 14.984375 -73.007812 15.734375 -73.40625 C 16.484375 -73.8125 17.164062 -74.238281 17.78125 -74.6875 C 18.394531 -75.132812 18.972656 -75.554688 19.515625 -75.953125 C 20.054688 -76.347656 20.675781 -76.546875 21.375 -76.546875 C 21.9375 -76.546875 22.535156 -76.414062 23.171875 -76.15625 C 23.804688 -75.90625 24.394531 -75.492188 24.9375 -74.921875 C 25.476562 -74.359375 25.9375 -73.617188 26.3125 -72.703125 C 26.6875 -71.785156 26.875 -70.671875 26.875 -69.359375 C 26.875 -67.472656 26.507812 -65.847656 25.78125 -64.484375 C 25.050781 -63.117188 24.109375 -61.976562 22.953125 -61.0625 C 21.804688 -60.144531 20.492188 -59.460938 19.015625 -59.015625 C 17.535156 -58.566406 16.066406 -58.34375 14.609375 -58.34375 C 12.347656 -58.34375 10.3125 -58.726562 8.5 -59.5 C 6.6875 -60.28125 5.144531 -61.351562 3.875 -62.71875 C 2.601562 -64.082031 1.640625 -65.679688 0.984375 -67.515625 C 0.328125 -69.359375 0 -71.3125 0 -73.375 C 0 -78.882812 1.515625 -83.648438 4.546875 -87.671875 C 7.585938 -91.691406 11.738281 -95.03125 17 -97.6875 C 22.269531 -100.34375 28.410156 -102.304688 35.421875 -103.578125 C 42.429688 -104.847656 49.929688 -105.484375 57.921875 -105.484375 C 61.734375 -105.484375 65.453125 -105.445312 69.078125 -105.375 C 72.703125 -105.300781 76.003906 -105.191406 78.984375 -105.046875 C 81.972656 -104.910156 84.546875 -104.75 86.703125 -104.5625 C 88.867188 -104.375 90.445312 -104.164062 91.4375 -103.9375 C 92.382812 -103.695312 93.140625 -103.351562 93.703125 -102.90625 C 94.265625 -102.457031 94.6875 -101.953125 94.96875 -101.390625 C 95.25 -100.828125 95.4375 -100.226562 95.53125 -99.59375 C 95.625 -98.957031 95.671875 -98.3125 95.671875 -97.65625 C 95.671875 -97.132812 95.597656 -96.53125 95.453125 -95.84375 C 95.316406 -95.164062 95.109375 -94.519531 94.828125 -93.90625 C 94.546875 -93.300781 94.191406 -92.785156 93.765625 -92.359375 C 93.347656 -91.929688 92.832031 -91.71875 92.21875 -91.71875 C 91.84375 -91.71875 91.453125 -91.882812 91.046875 -92.21875 C 90.648438 -92.550781 90.097656 -92.953125 89.390625 -93.421875 C 88.691406 -93.890625 87.738281 -94.425781 86.53125 -95.03125 C 85.332031 -95.644531 83.753906 -96.210938 81.796875 -96.734375 C 79.847656 -97.253906 77.453125 -97.722656 74.609375 -98.140625 C 71.765625 -98.566406 68.320312 -98.847656 64.28125 -98.984375 L 64.28125 -9.25 C 64.28125 -5.625 63.335938 -2.988281 61.453125 -1.34375 C 59.566406 0.300781 56.675781 1.125 52.78125 1.125 Z M 52.78125 1.125 "/></g></g><g style="fill:#ffffff;fill-opacity:1;"><g transform="translate(808.057475, 514.044823)"><path style="stroke:none" d=""/></g></g><g style="fill:#ffffff;fill-opacity:1;"><g transform="translate(170.672658, 599.878425)"><path style="stroke:none" d="M 19.90625 0.953125 C 16.125 0.953125 12.84375 0.316406 10.0625 -0.953125 C 7.289062 -2.234375 5.148438 -4.050781 3.640625 -6.40625 C 2.128906 -8.769531 1.375 -11.578125 1.375 -14.828125 C 1.375 -18.046875 2.085938 -20.832031 3.515625 -23.1875 C 4.941406 -25.550781 6.957031 -27.378906 9.5625 -28.671875 C 12.175781 -29.960938 15.273438 -30.609375 18.859375 -30.609375 C 21.578125 -30.609375 24.039062 -30.171875 26.25 -29.296875 C 28.457031 -28.421875 30.300781 -27.179688 31.78125 -25.578125 C 33.269531 -23.984375 34.28125 -22.09375 34.8125 -19.90625 L 27.734375 -18.203125 C 27.265625 -20.140625 26.242188 -21.671875 24.671875 -22.796875 C 23.097656 -23.921875 21.203125 -24.484375 18.984375 -24.484375 C 16.984375 -24.484375 15.238281 -24.085938 13.75 -23.296875 C 12.269531 -22.503906 11.128906 -21.382812 10.328125 -19.9375 C 9.523438 -18.5 9.125 -16.796875 9.125 -14.828125 C 9.125 -12.859375 9.566406 -11.148438 10.453125 -9.703125 C 11.335938 -8.253906 12.601562 -7.132812 14.25 -6.34375 C 15.90625 -5.550781 17.847656 -5.15625 20.078125 -5.15625 C 22.710938 -5.15625 24.953125 -5.820312 26.796875 -7.15625 C 28.640625 -8.488281 29.796875 -10.28125 30.265625 -12.53125 L 37.46875 -11.328125 C 37.03125 -8.828125 36.019531 -6.65625 34.4375 -4.8125 C 32.851562 -2.96875 30.816406 -1.546875 28.328125 -0.546875 C 25.847656 0.453125 23.039062 0.953125 19.90625 0.953125 Z M 19.90625 0.953125 "/></g></g><g style="fill:#ffffff;fill-opacity:1;"><g transform="translate(242.256136, 599.878425)"><path style="stroke:none" d="M 0.171875 0 L 13.078125 -29.640625 L 22.3125 -29.640625 L 35.0625 0 L 26.984375 0 L 24.609375 -5.828125 L 10.578125 -5.828125 L 8.203125 0 Z M 12.15625 -10.875 L 23.03125 -10.875 L 17.703125 -24.109375 L 17.609375 -24.109375 Z M 12.15625 -10.875 "/></g></g><g style="fill:#ffffff;fill-opacity:1;"><g transform="translate(310.800107, 599.878425)"><path style="stroke:none" d="M 2.203125 0 L 2.203125 -29.640625 L 27.28125 -29.640625 L 27.28125 -23.5625 L 9.953125 -23.5625 L 9.953125 -16.578125 L 24.78125 -16.578125 L 24.78125 -11.28125 L 9.953125 -11.28125 L 9.953125 0 Z M 2.203125 0 "/></g></g><g style="fill:#ffffff;fill-opacity:1;"><g transform="translate(372.099224, 599.878425)"><path style="stroke:none" d="M 2.203125 0 L 2.203125 -29.640625 L 27.8125 -29.640625 L 27.8125 -24.0625 L 9.703125 -24.0625 L 9.703125 -17.65625 L 26.15625 -17.65625 L 26.15625 -12.703125 L 9.703125 -12.703125 L 9.703125 -5.578125 L 28.234375 -5.578125 L 28.234375 0 Z M 2.203125 0 "/></g></g><g style="fill:#ffffff;fill-opacity:1;"><g transform="translate(434.564168, 599.878425)"><path style="stroke:none" d="M 11.125 0 L 11.125 -23.5625 L 0.453125 -23.5625 L 0.453125 -29.640625 L 29.515625 -29.640625 L 29.515625 -23.5625 L 18.859375 -23.5625 L 18.859375 0 Z M 11.125 0 "/></g></g><g style="fill:#ffffff;fill-opacity:1;"><g transform="translate(497.861858, 599.878425)"><path style="stroke:none" d="M 2.203125 0 L 2.203125 -29.640625 L 27.8125 -29.640625 L 27.8125 -24.0625 L 9.703125 -24.0625 L 9.703125 -17.65625 L 26.15625 -17.65625 L 26.15625 -12.703125 L 9.703125 -12.703125 L 9.703125 -5.578125 L 28.234375 -5.578125 L 28.234375 0 Z M 2.203125 0 "/></g></g><g style="fill:#ffffff;fill-opacity:1;"><g transform="translate(560.326802, 599.878425)"><path style="stroke:none" d="M 29.140625 0.796875 C 27.453125 0.796875 26.078125 0.351562 25.015625 -0.53125 C 23.960938 -1.425781 23.160156 -2.515625 22.609375 -3.796875 L 20.9375 -7.875 C 20.550781 -8.8125 20 -9.554688 19.28125 -10.109375 C 18.5625 -10.671875 17.726562 -10.953125 16.78125 -10.953125 L 9.953125 -10.953125 L 9.953125 0 L 2.203125 0 L 2.203125 -29.640625 L 21.484375 -29.640625 C 25.097656 -29.640625 27.9375 -28.828125 30 -27.203125 C 32.070312 -25.585938 33.109375 -23.363281 33.109375 -20.53125 C 33.109375 -18.414062 32.410156 -16.628906 31.015625 -15.171875 C 29.628906 -13.710938 27.703125 -12.75 25.234375 -12.28125 L 25.234375 -12.25 C 25.929688 -11.96875 26.507812 -11.546875 26.96875 -10.984375 C 27.425781 -10.429688 27.804688 -9.78125 28.109375 -9.03125 L 29.609375 -5.5 C 29.828125 -5.050781 30.085938 -4.675781 30.390625 -4.375 C 30.703125 -4.070312 31.117188 -3.921875 31.640625 -3.921875 C 32.035156 -3.921875 32.429688 -4.03125 32.828125 -4.25 C 33.234375 -4.46875 33.578125 -4.757812 33.859375 -5.125 L 35.484375 -1.671875 C 34.753906 -0.941406 33.820312 -0.347656 32.6875 0.109375 C 31.550781 0.566406 30.367188 0.796875 29.140625 0.796875 Z M 9.953125 -15.90625 L 19.859375 -15.90625 C 21.554688 -15.90625 22.894531 -16.285156 23.875 -17.046875 C 24.863281 -17.816406 25.359375 -18.835938 25.359375 -20.109375 C 25.359375 -21.410156 24.863281 -22.453125 23.875 -23.234375 C 22.894531 -24.015625 21.554688 -24.40625 19.859375 -24.40625 L 9.953125 -24.40625 Z M 9.953125 -15.90625 "/></g></g><g style="fill:#ffffff;fill-opacity:1;"><g transform="translate(629.245515, 599.878425)"><path style="stroke:none" d="M 2.203125 0 L 2.203125 -29.640625 L 9.90625 -29.640625 L 9.90625 0 Z M 2.203125 0 "/></g></g><g style="fill:#ffffff;fill-opacity:1;"><g transform="translate(674.680912, 599.878425)"><path style="stroke:none" d="M 0.171875 0 L 13.078125 -29.640625 L 22.3125 -29.640625 L 35.0625 0 L 26.984375 0 L 24.609375 -5.828125 L 10.578125 -5.828125 L 8.203125 0 Z M 12.15625 -10.875 L 23.03125 -10.875 L 17.703125 -24.109375 L 17.609375 -24.109375 Z M 12.15625 -10.875 "/></g></g></g></svg>