<svg xmlns="http://www.w3.org/2000/svg" xmlns:xlink="http://www.w3.org/1999/xlink" width="500" zoomAndPan="magnify" viewBox="0 0 375 374.999991" height="500" preserveAspectRatio="xMidYMid meet" version="1.2"><defs><clipPath id="46c69782c9"><path d="M 72 124 L 165 124 L 165 216 L 72 216 Z M 72 124 "/></clipPath><clipPath id="a842f31d17"><path d="M 42.902344 132.027344 L 165.207031 113.167969 L 179.152344 203.597656 L 56.847656 222.457031 Z M 42.902344 132.027344 "/></clipPath><clipPath id="67d9714464"><path d="M 42.902344 132.027344 L 165.207031 113.167969 L 179.152344 203.597656 L 56.847656 222.457031 Z M 42.902344 132.027344 "/></clipPath><clipPath id="d08157a6b8"><path d="M 54 168 L 123 168 L 123 218 L 54 218 Z M 54 168 "/></clipPath><clipPath id="868831afda"><path d="M 42.902344 132.027344 L 165.207031 113.167969 L 179.152344 203.597656 L 56.847656 222.457031 Z M 42.902344 132.027344 "/></clipPath><clipPath id="96b9b13eca"><path d="M 42.902344 132.027344 L 165.207031 113.167969 L 179.152344 203.597656 L 56.847656 222.457031 Z M 42.902344 132.027344 "/></clipPath></defs><g id="a069b2d314"><g clip-rule="nonzero" clip-path="url(#46c69782c9)"><g clip-rule="nonzero" clip-path="url(#a842f31d17)"><g clip-rule="nonzero" clip-path="url(#67d9714464)"><path style=" stroke:none;fill-rule:evenodd;fill:#ab131c;fill-opacity:1;" d="M 72.3125 182.476562 C 72.3125 182.476562 85.851562 181.488281 103.601562 157.265625 C 121.351562 133.042969 138.53125 129.347656 148.347656 141.570312 C 158.160156 153.792969 147.742188 167.445312 147.742188 167.445312 C 147.742188 167.445312 147.628906 161.21875 146.734375 155.410156 C 145.839844 149.601562 142.894531 146.058594 142.894531 146.058594 C 142.894531 146.058594 144.960938 154.730469 144.472656 159.207031 C 143.980469 163.683594 140.140625 168.070312 140.140625 168.070312 L 137.414062 168.539062 C 137.414062 168.539062 137.484375 163.742188 135.316406 158.820312 C 133.148438 153.898438 128.628906 151.40625 128.628906 151.40625 C 128.628906 151.40625 133.007812 157.128906 133.609375 161.03125 C 134.210938 164.9375 134.265625 169.824219 134.265625 169.824219 C 134.265625 169.824219 124.175781 170.480469 111.976562 177.558594 C 99.777344 184.636719 91.828125 194.65625 91.828125 194.65625 C 91.828125 194.65625 113.449219 180.632812 128.0625 176.878906 C 142.671875 173.125 150.167969 176.367188 150.167969 176.367188 L 155.230469 187.179688 C 155.230469 187.179688 140.308594 188.882812 125.597656 195.246094 C 110.890625 201.613281 96.105469 215.882812 96.105469 215.882812 C 96.105469 215.882812 121.757812 201.4375 136.863281 197.007812 C 151.96875 192.578125 164.824219 192.996094 164.824219 192.996094 L 154.417969 172.816406 C 154.417969 172.816406 170.207031 145.597656 154.140625 131.484375 C 138.074219 117.375 113.996094 125.183594 99.714844 151.171875 C 85.4375 177.15625 72.3125 182.476562 72.3125 182.476562 Z M 72.3125 182.476562 "/></g></g></g><g clip-rule="nonzero" clip-path="url(#d08157a6b8)"><g clip-rule="nonzero" clip-path="url(#868831afda)"><g clip-rule="nonzero" clip-path="url(#96b9b13eca)"><path style=" stroke:none;fill-rule:evenodd;fill:#414141;fill-opacity:1;" d="M 79.960938 168.207031 C 79.960938 168.207031 55.898438 176.113281 60.242188 191.335938 C 64.589844 206.554688 85.046875 196.003906 85.046875 196.003906 L 90.117188 207.519531 C 90.117188 207.519531 98.398438 200.941406 106.207031 197.136719 C 114.015625 193.335938 122.394531 193.242188 122.394531 193.242188 C 122.394531 193.242188 105.277344 198.878906 98.910156 205.558594 C 92.546875 212.234375 88.117188 217.214844 88.117188 217.214844 L 81.878906 203.988281 C 81.878906 203.988281 61.738281 211.390625 55.910156 195 C 50.085938 178.609375 62.261719 169.4375 79.960938 168.207031 Z M 79.960938 168.207031 "/></g></g></g><g style="fill:#b0141c;fill-opacity:1;"><g transform="translate(90.612599, 250.087865)"><path style="stroke:none" d="M 16.703125 -30.640625 C 16.316406 -30.640625 15.859375 -30.5625 15.328125 -30.40625 C 14.804688 -30.25 14.273438 -29.945312 13.734375 -29.5 C 13.191406 -29.0625 12.660156 -28.441406 12.140625 -27.640625 C 11.617188 -26.847656 11.148438 -25.816406 10.734375 -24.546875 C 10.316406 -23.273438 9.984375 -21.734375 9.734375 -19.921875 C 9.484375 -18.109375 9.359375 -15.96875 9.359375 -13.5 C 9.359375 -11.15625 9.484375 -9.117188 9.734375 -7.390625 C 9.984375 -5.671875 10.320312 -4.203125 10.75 -2.984375 C 11.175781 -1.773438 11.664062 -0.785156 12.21875 -0.015625 C 12.769531 0.742188 13.347656 1.335938 13.953125 1.765625 C 14.566406 2.203125 15.175781 2.5 15.78125 2.65625 C 16.394531 2.8125 16.972656 2.890625 17.515625 2.890625 C 18.078125 2.890625 18.644531 2.816406 19.21875 2.671875 C 19.800781 2.523438 20.367188 2.3125 20.921875 2.03125 C 21.484375 1.757812 22.019531 1.425781 22.53125 1.03125 C 23.050781 0.644531 23.53125 0.203125 23.96875 -0.296875 L 24.953125 0.671875 C 24.515625 1.210938 23.988281 1.757812 23.375 2.3125 C 22.769531 2.875 22.066406 3.382812 21.265625 3.84375 C 20.460938 4.300781 19.554688 4.671875 18.546875 4.953125 C 17.546875 5.242188 16.4375 5.390625 15.21875 5.390625 C 13.320312 5.390625 11.554688 5.023438 9.921875 4.296875 C 8.296875 3.578125 6.875 2.453125 5.65625 0.921875 C 4.445312 -0.609375 3.5 -2.566406 2.8125 -4.953125 C 2.125 -7.347656 1.78125 -10.210938 1.78125 -13.546875 C 1.78125 -16.679688 2.140625 -19.429688 2.859375 -21.796875 C 3.585938 -24.160156 4.578125 -26.132812 5.828125 -27.71875 C 7.078125 -29.3125 8.539062 -30.507812 10.21875 -31.3125 C 11.90625 -32.113281 13.695312 -32.515625 15.59375 -32.515625 C 16.851562 -32.515625 18 -32.394531 19.03125 -32.15625 C 20.070312 -31.914062 20.96875 -31.566406 21.71875 -31.109375 C 22.476562 -30.660156 23.0625 -30.097656 23.46875 -29.421875 C 23.882812 -28.742188 24.09375 -27.976562 24.09375 -27.125 C 24.09375 -26.726562 24.023438 -26.316406 23.890625 -25.890625 C 23.765625 -25.460938 23.566406 -25.070312 23.296875 -24.71875 C 23.035156 -24.363281 22.707031 -24.070312 22.3125 -23.84375 C 21.925781 -23.625 21.472656 -23.515625 20.953125 -23.515625 C 20.484375 -23.515625 20.117188 -23.613281 19.859375 -23.8125 C 19.609375 -24.019531 19.421875 -24.289062 19.296875 -24.625 C 19.179688 -24.957031 19.101562 -25.335938 19.0625 -25.765625 C 19.03125 -26.191406 19.003906 -26.628906 18.984375 -27.078125 C 18.972656 -27.523438 18.941406 -27.960938 18.890625 -28.390625 C 18.835938 -28.816406 18.734375 -29.195312 18.578125 -29.53125 C 18.429688 -29.863281 18.210938 -30.128906 17.921875 -30.328125 C 17.628906 -30.535156 17.222656 -30.640625 16.703125 -30.640625 Z M 16.703125 -30.640625 "/></g></g><g style="fill:#b0141c;fill-opacity:1;"><g transform="translate(138.587625, 250.087865)"><path style="stroke:none" d="M 20.53125 -9.171875 L 12.328125 -9.171875 C 11.722656 -7.265625 11.066406 -5.609375 10.359375 -4.203125 C 9.660156 -2.796875 8.882812 -1.625 8.03125 -0.6875 C 7.175781 0.238281 6.234375 0.925781 5.203125 1.375 C 4.179688 1.820312 3.039062 2.046875 1.78125 2.046875 C 1.082031 2.046875 0.410156 1.984375 -0.234375 1.859375 C -0.878906 1.734375 -1.445312 1.5625 -1.9375 1.34375 C -2.425781 1.125 -2.816406 0.863281 -3.109375 0.5625 C -3.410156 0.269531 -3.5625 -0.046875 -3.5625 -0.390625 C -3.5625 -0.648438 -3.519531 -0.914062 -3.4375 -1.1875 C -3.363281 -1.457031 -3.253906 -1.703125 -3.109375 -1.921875 C -2.960938 -2.148438 -2.785156 -2.332031 -2.578125 -2.46875 C -2.367188 -2.601562 -2.132812 -2.671875 -1.875 -2.671875 C -1.632812 -2.671875 -1.425781 -2.507812 -1.25 -2.1875 C -1.082031 -1.875 -0.863281 -1.523438 -0.59375 -1.140625 C -0.332031 -0.753906 0.00390625 -0.398438 0.421875 -0.078125 C 0.847656 0.234375 1.429688 0.390625 2.171875 0.390625 C 2.929688 0.390625 3.648438 0.207031 4.328125 -0.15625 C 5.003906 -0.519531 5.660156 -1.085938 6.296875 -1.859375 C 6.929688 -2.640625 7.535156 -3.628906 8.109375 -4.828125 C 8.691406 -6.035156 9.257812 -7.484375 9.8125 -9.171875 L 4.671875 -9.171875 L 4.671875 -11.09375 L 10.375 -11.09375 C 10.851562 -12.71875 11.320312 -14.351562 11.78125 -16 C 12.238281 -17.65625 12.671875 -19.242188 13.078125 -20.765625 C 13.484375 -22.296875 13.84375 -23.722656 14.15625 -25.046875 C 14.476562 -26.367188 14.75 -27.523438 14.96875 -28.515625 C 14.675781 -29.328125 14.28125 -29.867188 13.78125 -30.140625 C 13.28125 -30.421875 12.609375 -30.5625 11.765625 -30.5625 C 10.984375 -30.5625 10.175781 -30.441406 9.34375 -30.203125 C 8.507812 -29.960938 7.75 -29.617188 7.0625 -29.171875 C 6.382812 -28.734375 5.820312 -28.191406 5.375 -27.546875 C 4.9375 -26.898438 4.71875 -26.179688 4.71875 -25.390625 C 4.71875 -24.921875 4.78125 -24.546875 4.90625 -24.265625 C 5.03125 -23.992188 5.175781 -23.789062 5.34375 -23.65625 C 5.507812 -23.519531 5.671875 -23.429688 5.828125 -23.390625 C 5.984375 -23.359375 6.109375 -23.34375 6.203125 -23.34375 C 6.546875 -23.34375 6.835938 -23.398438 7.078125 -23.515625 C 7.316406 -23.640625 7.523438 -23.769531 7.703125 -23.90625 C 7.890625 -24.050781 8.066406 -24.179688 8.234375 -24.296875 C 8.410156 -24.421875 8.609375 -24.484375 8.828125 -24.484375 C 8.992188 -24.484375 9.171875 -24.441406 9.359375 -24.359375 C 9.554688 -24.285156 9.738281 -24.160156 9.90625 -23.984375 C 10.070312 -23.816406 10.210938 -23.585938 10.328125 -23.296875 C 10.441406 -23.015625 10.5 -22.675781 10.5 -22.28125 C 10.5 -21.695312 10.382812 -21.191406 10.15625 -20.765625 C 9.9375 -20.347656 9.648438 -20 9.296875 -19.71875 C 8.941406 -19.4375 8.535156 -19.222656 8.078125 -19.078125 C 7.617188 -18.941406 7.164062 -18.875 6.71875 -18.875 C 6.019531 -18.875 5.390625 -19 4.828125 -19.25 C 4.273438 -19.507812 3.800781 -19.859375 3.40625 -20.296875 C 3.019531 -20.734375 2.722656 -21.238281 2.515625 -21.8125 C 2.316406 -22.394531 2.21875 -23.003906 2.21875 -23.640625 C 2.21875 -24.597656 2.375 -25.476562 2.6875 -26.28125 C 3.007812 -27.09375 3.453125 -27.828125 4.015625 -28.484375 C 4.585938 -29.140625 5.253906 -29.71875 6.015625 -30.21875 C 6.785156 -30.71875 7.617188 -31.140625 8.515625 -31.484375 C 9.410156 -31.828125 10.34375 -32.082031 11.3125 -32.25 C 12.28125 -32.425781 13.257812 -32.515625 14.25 -32.515625 C 15.632812 -32.515625 16.8125 -32.398438 17.78125 -32.171875 C 18.75 -31.953125 19.554688 -31.617188 20.203125 -31.171875 C 20.859375 -30.734375 21.382812 -30.175781 21.78125 -29.5 C 22.175781 -28.832031 22.507812 -28.054688 22.78125 -27.171875 L 27.453125 -11.09375 L 32.171875 -11.09375 L 32.171875 -9.171875 L 27.96875 -9.171875 L 29.671875 -3.484375 C 29.722656 -3.265625 29.78125 -3.0625 29.84375 -2.875 C 29.90625 -2.6875 29.972656 -2.519531 30.046875 -2.375 C 30.128906 -2.238281 30.226562 -2.128906 30.34375 -2.046875 C 30.46875 -1.960938 30.628906 -1.921875 30.828125 -1.921875 C 31.234375 -1.921875 31.609375 -1.988281 31.953125 -2.125 C 32.296875 -2.257812 32.597656 -2.398438 32.859375 -2.546875 L 33.234375 -1.734375 C 32.972656 -1.546875 32.640625 -1.332031 32.234375 -1.09375 C 31.835938 -0.851562 31.382812 -0.625 30.875 -0.40625 C 30.363281 -0.195312 29.796875 -0.0195312 29.171875 0.125 C 28.546875 0.269531 27.878906 0.34375 27.171875 0.34375 C 26.179688 0.34375 25.382812 0.222656 24.78125 -0.015625 C 24.1875 -0.265625 23.71875 -0.570312 23.375 -0.9375 C 23.03125 -1.300781 22.78125 -1.6875 22.625 -2.09375 C 22.476562 -2.5 22.363281 -2.851562 22.28125 -3.15625 Z M 16.3125 -23.890625 C 15.71875 -21.460938 15.140625 -19.179688 14.578125 -17.046875 C 14.023438 -14.921875 13.472656 -12.9375 12.921875 -11.09375 L 20.015625 -11.09375 Z M 16.3125 -23.890625 "/></g></g><g style="fill:#b0141c;fill-opacity:1;"><g transform="translate(195.523443, 250.087865)"><path style="stroke:none" d="M 24.140625 -7.484375 C 24.660156 -8.828125 25.210938 -10.328125 25.796875 -11.984375 C 26.378906 -13.648438 26.910156 -15.332031 27.390625 -17.03125 C 27.878906 -18.738281 28.28125 -20.394531 28.59375 -22 C 28.914062 -23.613281 29.078125 -25.050781 29.078125 -26.3125 C 29.078125 -27.269531 29.007812 -28.066406 28.875 -28.703125 C 28.75 -29.347656 28.601562 -29.882812 28.4375 -30.3125 C 28.269531 -30.738281 28.117188 -31.085938 27.984375 -31.359375 C 27.859375 -31.640625 27.796875 -31.894531 27.796875 -32.125 C 27.796875 -32.425781 27.878906 -32.679688 28.046875 -32.890625 C 28.210938 -33.109375 28.414062 -33.289062 28.65625 -33.4375 C 28.90625 -33.582031 29.175781 -33.6875 29.46875 -33.75 C 29.757812 -33.8125 30.035156 -33.84375 30.296875 -33.84375 C 30.878906 -33.84375 31.367188 -33.753906 31.765625 -33.578125 C 32.160156 -33.410156 32.441406 -33.113281 32.609375 -32.6875 C 32.679688 -32.46875 32.738281 -32.238281 32.78125 -32 C 32.820312 -31.757812 32.851562 -31.523438 32.875 -31.296875 C 32.894531 -31.078125 32.90625 -30.867188 32.90625 -30.671875 C 32.90625 -30.484375 32.90625 -30.332031 32.90625 -30.21875 C 32.90625 -29.601562 32.800781 -28.765625 32.59375 -27.703125 C 32.394531 -26.648438 32.125 -25.457031 31.78125 -24.125 C 31.445312 -22.789062 31.054688 -21.359375 30.609375 -19.828125 C 30.160156 -18.304688 29.695312 -16.773438 29.21875 -15.234375 C 28.738281 -13.691406 28.25 -12.179688 27.75 -10.703125 C 27.257812 -9.222656 26.796875 -7.851562 26.359375 -6.59375 C 25.921875 -5.34375 25.53125 -4.242188 25.1875 -3.296875 C 24.851562 -2.359375 24.59375 -1.660156 24.40625 -1.203125 C 24.269531 -0.867188 24.101562 -0.597656 23.90625 -0.390625 C 23.71875 -0.191406 23.5 -0.0390625 23.25 0.0625 C 23 0.175781 22.722656 0.25 22.421875 0.28125 C 22.128906 0.320312 21.828125 0.34375 21.515625 0.34375 C 20.929688 0.34375 20.457031 0.285156 20.09375 0.171875 C 19.726562 0.0546875 19.429688 -0.0820312 19.203125 -0.25 C 18.984375 -0.425781 18.820312 -0.613281 18.71875 -0.8125 C 18.625 -1.019531 18.546875 -1.207031 18.484375 -1.375 L 10.25 -27.25 C 10.082031 -27.75 9.914062 -28.164062 9.75 -28.5 C 9.582031 -28.84375 9.378906 -29.125 9.140625 -29.34375 C 8.898438 -29.5625 8.613281 -29.71875 8.28125 -29.8125 C 7.945312 -29.914062 7.535156 -29.96875 7.046875 -29.96875 C 6.640625 -29.96875 6.164062 -29.867188 5.625 -29.671875 C 5.09375 -29.484375 4.582031 -29.195312 4.09375 -28.8125 C 3.613281 -28.425781 3.207031 -27.945312 2.875 -27.375 C 2.539062 -26.800781 2.375 -26.140625 2.375 -25.390625 C 2.375 -24.921875 2.429688 -24.546875 2.546875 -24.265625 C 2.671875 -23.992188 2.8125 -23.789062 2.96875 -23.65625 C 3.132812 -23.519531 3.300781 -23.429688 3.46875 -23.390625 C 3.632812 -23.359375 3.753906 -23.34375 3.828125 -23.34375 C 4.191406 -23.34375 4.488281 -23.398438 4.71875 -23.515625 C 4.945312 -23.640625 5.15625 -23.769531 5.34375 -23.90625 C 5.539062 -24.050781 5.722656 -24.179688 5.890625 -24.296875 C 6.054688 -24.421875 6.242188 -24.484375 6.453125 -24.484375 C 6.628906 -24.484375 6.816406 -24.441406 7.015625 -24.359375 C 7.210938 -24.285156 7.394531 -24.160156 7.5625 -23.984375 C 7.726562 -23.816406 7.867188 -23.585938 7.984375 -23.296875 C 8.097656 -23.015625 8.15625 -22.675781 8.15625 -22.28125 C 8.15625 -21.695312 8.039062 -21.191406 7.8125 -20.765625 C 7.59375 -20.347656 7.304688 -20 6.953125 -19.71875 C 6.597656 -19.4375 6.191406 -19.222656 5.734375 -19.078125 C 5.273438 -18.941406 4.820312 -18.875 4.375 -18.875 C 3.675781 -18.875 3.054688 -19 2.515625 -19.25 C 1.972656 -19.5 1.515625 -19.832031 1.140625 -20.25 C 0.773438 -20.664062 0.492188 -21.15625 0.296875 -21.71875 C 0.0976562 -22.28125 0 -22.878906 0 -23.515625 C 0 -25.023438 0.285156 -26.335938 0.859375 -27.453125 C 1.441406 -28.578125 2.210938 -29.515625 3.171875 -30.265625 C 4.128906 -31.023438 5.21875 -31.585938 6.4375 -31.953125 C 7.65625 -32.328125 8.910156 -32.515625 10.203125 -32.515625 C 11.648438 -32.515625 12.835938 -32.289062 13.765625 -31.84375 C 14.691406 -31.40625 15.441406 -30.835938 16.015625 -30.140625 C 16.585938 -29.453125 17.039062 -28.675781 17.375 -27.8125 C 17.707031 -26.945312 18.003906 -26.09375 18.265625 -25.25 Z M 24.140625 -7.484375 "/></g></g><g style="fill:#b0141c;fill-opacity:1;"><g transform="translate(252.133024, 250.087865)"><path style="stroke:none" d="M 16.265625 0.34375 C 15.046875 0.34375 14.144531 0.09375 13.5625 -0.40625 C 12.988281 -0.914062 12.703125 -1.726562 12.703125 -2.84375 L 12.703125 -30.46875 C 12.234375 -30.425781 11.65625 -30.34375 10.96875 -30.21875 C 10.28125 -30.09375 9.554688 -29.914062 8.796875 -29.6875 C 8.046875 -29.457031 7.296875 -29.175781 6.546875 -28.84375 C 5.796875 -28.519531 5.117188 -28.144531 4.515625 -27.71875 C 3.921875 -27.289062 3.4375 -26.804688 3.0625 -26.265625 C 2.6875 -25.734375 2.5 -25.140625 2.5 -24.484375 C 2.5 -24.023438 2.5625 -23.65625 2.6875 -23.375 C 2.8125 -23.101562 2.953125 -22.898438 3.109375 -22.765625 C 3.265625 -22.628906 3.425781 -22.539062 3.59375 -22.5 C 3.757812 -22.46875 3.878906 -22.453125 3.953125 -22.453125 C 4.316406 -22.453125 4.613281 -22.507812 4.84375 -22.625 C 5.082031 -22.75 5.296875 -22.878906 5.484375 -23.015625 C 5.671875 -23.160156 5.847656 -23.289062 6.015625 -23.40625 C 6.179688 -23.53125 6.375 -23.59375 6.59375 -23.59375 C 6.769531 -23.59375 6.953125 -23.550781 7.140625 -23.46875 C 7.335938 -23.394531 7.519531 -23.269531 7.6875 -23.09375 C 7.851562 -22.925781 7.992188 -22.695312 8.109375 -22.40625 C 8.222656 -22.125 8.28125 -21.78125 8.28125 -21.375 C 8.28125 -20.800781 8.164062 -20.300781 7.9375 -19.875 C 7.71875 -19.457031 7.429688 -19.109375 7.078125 -18.828125 C 6.722656 -18.546875 6.316406 -18.332031 5.859375 -18.1875 C 5.398438 -18.050781 4.945312 -17.984375 4.5 -17.984375 C 3.800781 -17.984375 3.171875 -18.101562 2.609375 -18.34375 C 2.054688 -18.582031 1.582031 -18.910156 1.1875 -19.328125 C 0.800781 -19.753906 0.503906 -20.25 0.296875 -20.8125 C 0.0976562 -21.382812 0 -21.988281 0 -22.625 C 0 -24.320312 0.46875 -25.789062 1.40625 -27.03125 C 2.34375 -28.269531 3.617188 -29.296875 5.234375 -30.109375 C 6.859375 -30.929688 8.75 -31.535156 10.90625 -31.921875 C 13.070312 -32.316406 15.390625 -32.515625 17.859375 -32.515625 C 19.035156 -32.515625 20.179688 -32.503906 21.296875 -32.484375 C 22.410156 -32.460938 23.425781 -32.429688 24.34375 -32.390625 C 25.269531 -32.347656 26.066406 -32.296875 26.734375 -32.234375 C 27.398438 -32.179688 27.882812 -32.117188 28.1875 -32.046875 C 28.476562 -31.972656 28.707031 -31.863281 28.875 -31.71875 C 29.050781 -31.582031 29.179688 -31.425781 29.265625 -31.25 C 29.359375 -31.082031 29.421875 -30.898438 29.453125 -30.703125 C 29.484375 -30.503906 29.5 -30.304688 29.5 -30.109375 C 29.5 -29.941406 29.472656 -29.753906 29.421875 -29.546875 C 29.378906 -29.335938 29.316406 -29.140625 29.234375 -28.953125 C 29.148438 -28.765625 29.039062 -28.601562 28.90625 -28.46875 C 28.78125 -28.34375 28.617188 -28.28125 28.421875 -28.28125 C 28.304688 -28.28125 28.1875 -28.328125 28.0625 -28.421875 C 27.945312 -28.523438 27.78125 -28.648438 27.5625 -28.796875 C 27.34375 -28.941406 27.046875 -29.109375 26.671875 -29.296875 C 26.304688 -29.484375 25.820312 -29.65625 25.21875 -29.8125 C 24.613281 -29.976562 23.875 -30.125 23 -30.25 C 22.125 -30.382812 21.0625 -30.472656 19.8125 -30.515625 L 19.8125 -2.84375 C 19.8125 -1.726562 19.519531 -0.914062 18.9375 -0.40625 C 18.363281 0.09375 17.472656 0.34375 16.265625 0.34375 Z M 16.265625 0.34375 "/></g></g><g style="fill:#b0141c;fill-opacity:1;"><g transform="translate(301.761023, 250.087865)"><path style="stroke:none" d=""/></g></g><g style="fill:#414141;fill-opacity:1;"><g transform="translate(114.577365, 271.725714)"><path style="stroke:none" d="M 5.328125 0.25 C 4.316406 0.25 3.4375 0.0820312 2.6875 -0.25 C 1.945312 -0.59375 1.375 -1.078125 0.96875 -1.703125 C 0.570312 -2.335938 0.375 -3.09375 0.375 -3.96875 C 0.375 -4.832031 0.5625 -5.578125 0.9375 -6.203125 C 1.320312 -6.835938 1.863281 -7.328125 2.5625 -7.671875 C 3.257812 -8.015625 4.085938 -8.1875 5.046875 -8.1875 C 5.773438 -8.1875 6.429688 -8.066406 7.015625 -7.828125 C 7.609375 -7.597656 8.101562 -7.269531 8.5 -6.84375 C 8.90625 -6.414062 9.175781 -5.910156 9.3125 -5.328125 L 7.421875 -4.875 C 7.296875 -5.382812 7.019531 -5.789062 6.59375 -6.09375 C 6.175781 -6.394531 5.671875 -6.546875 5.078125 -6.546875 C 4.546875 -6.546875 4.082031 -6.441406 3.6875 -6.234375 C 3.289062 -6.023438 2.984375 -5.722656 2.765625 -5.328125 C 2.546875 -4.941406 2.4375 -4.488281 2.4375 -3.96875 C 2.4375 -3.4375 2.554688 -2.976562 2.796875 -2.59375 C 3.035156 -2.207031 3.375 -1.90625 3.8125 -1.6875 C 4.257812 -1.476562 4.78125 -1.375 5.375 -1.375 C 6.070312 -1.375 6.664062 -1.550781 7.15625 -1.90625 C 7.65625 -2.269531 7.96875 -2.753906 8.09375 -3.359375 L 10.03125 -3.03125 C 9.90625 -2.363281 9.628906 -1.78125 9.203125 -1.28125 C 8.785156 -0.789062 8.242188 -0.410156 7.578125 -0.140625 C 6.910156 0.117188 6.160156 0.25 5.328125 0.25 Z M 5.328125 0.25 "/></g></g><g style="fill:#414141;fill-opacity:1;"><g transform="translate(133.737509, 271.725714)"><path style="stroke:none" d="M 0.046875 0 L 3.5 -7.9375 L 5.96875 -7.9375 L 9.375 0 L 7.21875 0 L 6.578125 -1.5625 L 2.828125 -1.5625 L 2.1875 0 Z M 3.25 -2.90625 L 6.15625 -2.90625 L 4.734375 -6.453125 L 4.71875 -6.453125 Z M 3.25 -2.90625 "/></g></g><g style="fill:#414141;fill-opacity:1;"><g transform="translate(152.084104, 271.725714)"><path style="stroke:none" d="M 0.59375 0 L 0.59375 -7.9375 L 7.296875 -7.9375 L 7.296875 -6.3125 L 2.65625 -6.3125 L 2.65625 -4.4375 L 6.625 -4.4375 L 6.625 -3.015625 L 2.65625 -3.015625 L 2.65625 0 Z M 0.59375 0 "/></g></g><g style="fill:#414141;fill-opacity:1;"><g transform="translate(168.491543, 271.725714)"><path style="stroke:none" d="M 0.59375 0 L 0.59375 -7.9375 L 7.4375 -7.9375 L 7.4375 -6.4375 L 2.59375 -6.4375 L 2.59375 -4.71875 L 7 -4.71875 L 7 -3.390625 L 2.59375 -3.390625 L 2.59375 -1.5 L 7.546875 -1.5 L 7.546875 0 Z M 0.59375 0 "/></g></g><g style="fill:#414141;fill-opacity:1;"><g transform="translate(185.211028, 271.725714)"><path style="stroke:none" d="M 2.96875 0 L 2.96875 -6.3125 L 0.125 -6.3125 L 0.125 -7.9375 L 7.90625 -7.9375 L 7.90625 -6.3125 L 5.046875 -6.3125 L 5.046875 0 Z M 2.96875 0 "/></g></g><g style="fill:#414141;fill-opacity:1;"><g transform="translate(202.153398, 271.725714)"><path style="stroke:none" d="M 0.59375 0 L 0.59375 -7.9375 L 7.4375 -7.9375 L 7.4375 -6.4375 L 2.59375 -6.4375 L 2.59375 -4.71875 L 7 -4.71875 L 7 -3.390625 L 2.59375 -3.390625 L 2.59375 -1.5 L 7.546875 -1.5 L 7.546875 0 Z M 0.59375 0 "/></g></g><g style="fill:#414141;fill-opacity:1;"><g transform="translate(218.872883, 271.725714)"><path style="stroke:none" d="M 7.796875 0.21875 C 7.347656 0.21875 6.976562 0.0976562 6.6875 -0.140625 C 6.40625 -0.378906 6.191406 -0.671875 6.046875 -1.015625 L 5.609375 -2.109375 C 5.503906 -2.359375 5.351562 -2.554688 5.15625 -2.703125 C 4.96875 -2.859375 4.742188 -2.9375 4.484375 -2.9375 L 2.65625 -2.9375 L 2.65625 0 L 0.59375 0 L 0.59375 -7.9375 L 5.75 -7.9375 C 6.71875 -7.9375 7.476562 -7.71875 8.03125 -7.28125 C 8.582031 -6.84375 8.859375 -6.25 8.859375 -5.5 C 8.859375 -4.925781 8.671875 -4.441406 8.296875 -4.046875 C 7.929688 -3.660156 7.414062 -3.40625 6.75 -3.28125 C 6.9375 -3.195312 7.085938 -3.082031 7.203125 -2.9375 C 7.328125 -2.789062 7.429688 -2.617188 7.515625 -2.421875 L 7.921875 -1.46875 C 7.984375 -1.351562 8.050781 -1.253906 8.125 -1.171875 C 8.207031 -1.085938 8.320312 -1.046875 8.46875 -1.046875 C 8.570312 -1.046875 8.675781 -1.070312 8.78125 -1.125 C 8.894531 -1.1875 8.988281 -1.269531 9.0625 -1.375 L 9.484375 -0.453125 C 9.296875 -0.253906 9.046875 -0.09375 8.734375 0.03125 C 8.429688 0.15625 8.117188 0.21875 7.796875 0.21875 Z M 2.65625 -4.25 L 5.3125 -4.25 C 5.769531 -4.25 6.128906 -4.351562 6.390625 -4.5625 C 6.648438 -4.769531 6.78125 -5.039062 6.78125 -5.375 C 6.78125 -5.726562 6.648438 -6.007812 6.390625 -6.21875 C 6.128906 -6.425781 5.769531 -6.53125 5.3125 -6.53125 L 2.65625 -6.53125 Z M 2.65625 -4.25 "/></g></g><g style="fill:#414141;fill-opacity:1;"><g transform="translate(237.319773, 271.725714)"><path style="stroke:none" d="M 0.59375 0 L 0.59375 -7.9375 L 2.65625 -7.9375 L 2.65625 0 Z M 0.59375 0 "/></g></g><g style="fill:#414141;fill-opacity:1;"><g transform="translate(249.481123, 271.725714)"><path style="stroke:none" d="M 0.046875 0 L 3.5 -7.9375 L 5.96875 -7.9375 L 9.375 0 L 7.21875 0 L 6.578125 -1.5625 L 2.828125 -1.5625 L 2.1875 0 Z M 3.25 -2.90625 L 6.15625 -2.90625 L 4.734375 -6.453125 L 4.71875 -6.453125 Z M 3.25 -2.90625 "/></g></g></g></svg>